<?xml version="1.0" standalone="no"?><!DOCTYPE svg PUBLIC "-//W3C//DTD SVG 1.1//EN" "http://www.w3.org/Graphics/SVG/1.1/DTD/svg11.dtd"><svg t="1589970134083" class="icon" viewBox="0 0 1024 1024" version="1.1" xmlns="http://www.w3.org/2000/svg" p-id="9527" xmlns:xlink="http://www.w3.org/1999/xlink" width="16" height="16"><defs><style type="text/css"></style></defs><path d="M511.968 376.224 796.096 92.096C833.536 54.624 894.4 54.624 931.84 92.096 969.312 129.568 969.312 190.4 931.84 227.872L647.744 512 931.84 796.096C969.312 833.568 969.312 894.4 931.84 931.872 894.4 969.344 833.536 969.344 796.096 931.872L511.968 647.744 227.84 931.872C190.4 969.344 129.536 969.344 92.096 931.872 54.624 894.4 54.624 833.568 92.096 796.096L376.224 512 92.096 227.872C54.624 190.4 54.624 129.568 92.096 92.096 129.536 54.624 190.4 54.624 227.84 92.096L511.968 376.224Z" p-id="9528" fill="#ffffff"></path></svg>