<?xml version="1.0" standalone="no"?><!DOCTYPE svg PUBLIC "-//W3C//DTD SVG 1.1//EN" "http://www.w3.org/Graphics/SVG/1.1/DTD/svg11.dtd"><svg t="1600572961942" class="icon" viewBox="0 0 1024 1024" version="1.1" xmlns="http://www.w3.org/2000/svg" p-id="1137" xmlns:xlink="http://www.w3.org/1999/xlink" width="32" height="32"><defs><style type="text/css"></style></defs><path d="M1024.796444 660.593778l-79.644444 79.644444L824.888889 620.088889l-120.035556 120.035555-79.644444-79.644444L745.244444 540.444444l-120.035555-120.035555 79.644444-79.644445L824.888889 460.8l120.149333-120.206222 79.644445 79.644444L904.533333 540.444444zM469.333333 910.222222a42.552889 42.552889 0 0 1-17.066666-3.470222L213.333333 739.555556h-170.666666a42.211556 42.211556 0 0 1-42.666667-41.756445V383.032889A42.154667 42.154667 0 0 1 42.666667 341.333333h170.666666l239.160889-167.253333A43.690667 43.690667 0 0 1 469.333333 170.666667a42.211556 42.211556 0 0 1 42.666667 41.756444v656.042667a42.211556 42.211556 0 0 1-42.666667 41.756444zM398.222222 350.890667L278.755556 434.574222 249.173333 455.111111H113.777778v170.666667h135.395555l29.354667 20.536889L398.222222 729.998222z" p-id="1138"></path></svg>