<?xml version="1.0" standalone="no"?><!DOCTYPE svg PUBLIC "-//W3C//DTD SVG 1.1//EN" "http://www.w3.org/Graphics/SVG/1.1/DTD/svg11.dtd"><svg t="1594983006063" class="icon" viewBox="0 0 1024 1024" version="1.1" xmlns="http://www.w3.org/2000/svg" p-id="1199" width="32" height="32" xmlns:xlink="http://www.w3.org/1999/xlink"><defs><style type="text/css"></style></defs><path d="M915.2 668.8l-92.8-63.2V456l92.8-62.4v275.2zM108.8 779.2V244.8h636.8v535.2l-636.8-0.8z m863.2-492c-12.8-6.4-28-5.6-39.2 2.4l-109.6 74.4V244.8c0-42.4-34.4-76.8-76.8-76.8H108.8C66.4 168 32 202.4 32 244.8v535.2c0 42.4 34.4 76.8 76.8 76.8h636.8c42.4 0 76.8-34.4 76.8-76.8v-51.2l0.8-30.4 109.6 74.4c17.6 12 41.6 7.2 53.6-9.6 4-6.4 6.4-13.6 6.4-21.6V320.8c-0.8-14.4-8.8-27.2-20.8-33.6z m-728.8 33.6c-32 0-57.6 25.6-57.6 57.6s25.6 57.6 57.6 57.6 57.6-25.6 57.6-57.6-25.6-57.6-57.6-57.6" p-id="1200" fill="#ffffff"></path></svg>