<?xml version="1.0" standalone="no"?><!DOCTYPE svg PUBLIC "-//W3C//DTD SVG 1.1//EN" "http://www.w3.org/Graphics/SVG/1.1/DTD/svg11.dtd"><svg t="1597134756465" class="icon" viewBox="0 0 1024 1024" version="1.1" xmlns="http://www.w3.org/2000/svg" p-id="1754" width="16" height="16" xmlns:xlink="http://www.w3.org/1999/xlink"><defs><style type="text/css"></style></defs><path d="M924.128 46.816l-1.792 0L328.224 154.176c-15.36 1.12-27.52 13.952-27.52 29.6L299.552 691.072c-27.552-30.56-61.568-47.008-110.08-47.008-85.664 0-155.136 69.44-155.136 155.136 0 85.664 69.44 155.136 155.136 155.136s155.136-69.44 155.136-155.136c0-3.872-0.192-7.712-0.48-11.552L344.128 195.968l566.272-105.312 0 519.808c-23.04-29.152-63.424-50.336-112.96-50.336-85.664 0-155.136 69.44-155.136 155.136s69.44 155.136 155.136 155.136 155.136-69.44 155.136-155.136l1.248 0L953.824 76.48C953.824 60.128 940.512 46.816 924.128 46.816zM189.472 912c-62.304 0-112.832-50.528-112.832-112.832 0-62.304 50.528-112.832 112.832-112.832 58.304 0 106.24 44.224 112.192 100.96l0 11.872 0.64 0C302.304 861.504 251.776 912 189.472 912zM797.44 828.224c-62.4 0-112.992-50.592-112.992-112.992s50.592-112.992 112.992-112.992c62.4 0 112.992 50.592 112.992 112.992S859.84 828.224 797.44 828.224z" p-id="1755" fill="#2c2c2c"></path></svg>