<?xml version="1.0" standalone="no"?><!DOCTYPE svg PUBLIC "-//W3C//DTD SVG 1.1//EN" "http://www.w3.org/Graphics/SVG/1.1/DTD/svg11.dtd"><svg t="1592106565865" class="icon" viewBox="0 0 1024 1024" version="1.1" xmlns="http://www.w3.org/2000/svg" p-id="1460" xmlns:xlink="http://www.w3.org/1999/xlink" width="32" height="32"><defs><style type="text/css"></style></defs><path d="M861.090909 256H337.454545a34.909091 34.909091 0 0 1 0-69.818182H861.090909a34.909091 34.909091 0 0 1 0 69.818182z m0 290.909091H337.454545a34.909091 34.909091 0 0 1 0-69.818182H861.090909a34.909091 34.909091 0 0 1 0 69.818182zM861.090909 837.818182H337.454545a34.909091 34.909091 0 0 1 0-69.818182H861.090909a34.909091 34.909091 0 0 1 0 69.818182zM209.454545 221.090909a34.909091 34.909091 0 1 1-69.841454-0.023273A34.909091 34.909091 0 0 1 209.454545 221.090909zM209.454545 512a34.909091 34.909091 0 1 1-69.841454-0.023273A34.909091 34.909091 0 0 1 209.454545 512z m0 290.909091a34.909091 34.909091 0 1 1-69.841454-0.023273A34.909091 34.909091 0 0 1 209.454545 802.909091z" fill="#2c2c2c" p-id="1461"></path></svg>