<?xml version="1.0" standalone="no"?><!DOCTYPE svg PUBLIC "-//W3C//DTD SVG 1.1//EN" "http://www.w3.org/Graphics/SVG/1.1/DTD/svg11.dtd"><svg t="1591330159110" class="icon" viewBox="0 0 1024 1024" version="1.1" xmlns="http://www.w3.org/2000/svg" p-id="2072" xmlns:xlink="http://www.w3.org/1999/xlink" width="16" height="16"><defs><style type="text/css"></style></defs><path d="M728.3 864.2H295.7C185.6 864.2 96 774.6 96 664.5v-305c0-110.1 89.6-199.7 199.7-199.7h432.6c110.1 0 199.7 89.6 199.7 199.7v305.1c0 110-89.6 199.6-199.7 199.6zM295.7 226.3c-73.4 0-133.1 59.7-133.1 133.1v305.1c0 73.4 59.7 133.1 133.1 133.1h432.6c73.4 0 133.1-59.7 133.1-133.1v-305c0-73.4-59.7-133.1-133.1-133.1H295.7z" fill="#686868" p-id="2073"></path><path d="M464.7 649.4c-8.2 0-16.4-2.1-23.8-6.4-14.6-8.4-23.7-24.2-23.7-41.1V425c0-16.9 9.1-32.6 23.7-41.1 14.7-8.5 32.8-8.4 47.5 0l153.3 88.5c14.7 8.5 23.7 24.2 23.7 41.1 0 16.9-9.1 32.6-23.8 41.1l-153.2 88.5c-7.2 4.2-15.4 6.3-23.7 6.3z m19.2-191.3v110.8l96-55.4-96-55.4zM608.5 530h0.2-0.2z m0-33.1c-0.1 0-0.1 0 0 0z" fill="#2BA8FC" p-id="2074"></path></svg>