<?xml version="1.0" standalone="no"?><!DOCTYPE svg PUBLIC "-//W3C//DTD SVG 1.1//EN" "http://www.w3.org/Graphics/SVG/1.1/DTD/svg11.dtd"><svg t="1592103295347" class="icon" viewBox="0 0 1025 1024" version="1.1" xmlns="http://www.w3.org/2000/svg" p-id="1465" xmlns:xlink="http://www.w3.org/1999/xlink" width="32.03125" height="32"><defs><style type="text/css"></style></defs><path d="M213.333333 341.333333l213.333333-213.333333 0 768-213.333333-213.333333-85.333333 0q-52.992 0-90.496-37.504t-37.504-90.496l0-83.669333q0-52.992 37.504-91.349333t90.496-38.314667l85.333333 0zM341.333333 690.005333l0-357.674667-92.672 94.336-120.661333 0q-17.322667 0-29.994667 13.184t-12.672 31.146667l0 83.669333q0 17.664 12.501333 30.165333t30.165333 12.501333l120.661333 0zM619.989333 369.664q12.330667 0 23.168 6.997333t16.170667 18.986667q23.338667 56.32 23.338667 116.352 0 61.013333-23.338667 115.669333-4.992 11.989333-15.829333 19.157333t-23.509333 7.168q-15.658667 0-29.184-11.818667t-13.482667-30.848q0-7.68 3.328-16.682667 16.682667-39.338667 16.682667-82.688 0-43.008-16.682667-82.986667-3.328-7.68-3.328-16.682667 0-18.986667 12.842667-30.848t29.824-11.818667zM750.336 250.666667q24.021333 0 36.650667 20.992 32.981333 54.997333 48.981333 113.664 17.322667 62.677333 17.322667 126.677333 0 63.658667-17.322667 127.018667-16.341333 59.349333-48.981333 113.664-12.330667 20.650667-36.650667 20.650667-16.682667 0-29.653333-11.989333t-13.013333-30.677333q0-11.648 6.314667-22.016 25.984-43.349333 39.68-92.672 14.336-50.005333 14.336-104.021333 0-53.674667-14.336-103.68-13.653333-49.322667-39.68-93.013333-6.314667-9.685333-6.314667-21.674667 0-18.005333 13.184-30.506667t29.482667-12.501333zM877.994667 133.674667q22.997333 0 35.328 18.688 54.314667 79.658667 82.517333 171.349333t28.16 188.330667-28.16 188.330667-82.517333 171.349333q-11.989333 18.688-35.328 18.688-17.322667 0-29.824-11.989333t-12.501333-30.677333q0-13.312 7.338667-24.021333 95.658667-140.330667 95.658667-311.68 0-84.010667-24.32-163.328t-71.338667-148.352q-7.338667-10.666667-7.338667-24.021333 0-18.688 12.501333-30.677333t29.824-11.989333z" p-id="1466"></path></svg>