<?xml version="1.0" standalone="no"?><!DOCTYPE svg PUBLIC "-//W3C//DTD SVG 1.1//EN" "http://www.w3.org/Graphics/SVG/1.1/DTD/svg11.dtd"><svg t="1600698277813" class="icon" viewBox="0 0 1024 1024" version="1.1" xmlns="http://www.w3.org/2000/svg" p-id="1752" xmlns:xlink="http://www.w3.org/1999/xlink" width="32" height="32"><defs><style type="text/css"></style></defs><path d="M878.7968 705.1264V377.6512H376.32v498.3808a75.1616 75.1616 0 0 1-3.8912 24.1664A157.3888 157.3888 0 0 1 219.7504 1024H156.672C70.144 1024 0 952.5248 0 864.3584c0-88.064 70.144-159.6416 156.672-159.6416h63.0784c3.7888 0 7.5776 0.2048 11.3664 0.4096V194.6624C231.1168 87.1424 316.7232 0 422.1952 0h410.7264C938.3936 0 1024 87.1424 1024 194.6624v681.3696a75.1616 75.1616 0 0 1-3.9936 24.1664A157.3888 157.3888 0 0 1 867.4304 1024h-63.1808c-86.4256 0-156.672-71.4752-156.672-159.6416 0-88.064 70.2464-159.6416 156.672-159.6416h63.0784c3.8912 0 7.68 0.2048 11.4688 0.4096z" fill="#e16531" p-id="1753"></path></svg>